<?xml version="1.0" encoding="utf-8"?>
<!-- Generator: Adobe Illustrator 16.0.0, SVG Export Plug-In . SVG Version: 6.00 Build 0)  -->
<!DOCTYPE svg PUBLIC "-//W3C//DTD SVG 1.1//EN" "http://www.w3.org/Graphics/SVG/1.1/DTD/svg11.dtd">
<svg version="1.1" id="Icons" xmlns="http://www.w3.org/2000/svg" xmlns:xlink="http://www.w3.org/1999/xlink" x="0px" y="0px"
	 width="50px" height="50px" viewBox="0 0 40 40" enable-background="new 0 0 40 40" xml:space="preserve">
<rect fill="#507CBD" width="40" height="40"/>
<path id="Facebook" fill="#FFFFFF" d="M16.961,12.315c0,0.673,0,3.678,0,3.678h-2.695v4.499h2.695v13.367h5.537V20.492h3.714
	c0,0,0.348-2.156,0.517-4.515c-0.481,0-4.21,0-4.21,0s0-2.616,0-3.076s0.603-1.077,1.2-1.077s1.853,0,3.015,0
	c0-0.613,0-2.728,0-4.684c-1.554,0-3.322,0-4.099,0C16.824,7.141,16.961,11.643,16.961,12.315z"/>
</svg>
