<?xml version="1.0" encoding="utf-8"?>
<!-- Generator: Adobe Illustrator 16.0.0, SVG Export Plug-In . SVG Version: 6.00 Build 0)  -->
<!DOCTYPE svg PUBLIC "-//W3C//DTD SVG 1.1//EN" "http://www.w3.org/Graphics/SVG/1.1/DTD/svg11.dtd">
<svg version="1.1" id="Icons" xmlns="http://www.w3.org/2000/svg" xmlns:xlink="http://www.w3.org/1999/xlink" x="0px" y="0px"
	 width="50px" height="50px" viewBox="0 0 100 100" enable-background="new 0 0 100 100" xml:space="preserve">
<rect fill="#63CDF1" width="100" height="100"/>
<path id="Twitter__x28_alt_x29_" fill="#FFFFFF" d="M84.803,46.564c5.055-0.417,8.483-2.715,9.803-5.833
	c-1.823,1.12-7.483,2.341-10.609,1.178c-0.152-0.734-0.324-1.432-0.492-2.062c-2.382-8.746-10.537-15.792-19.082-14.941
	c0.691-0.279,1.393-0.539,2.092-0.771c0.94-0.337,6.459-1.235,5.59-3.183c-0.732-1.713-7.475,1.295-8.744,1.688
	c1.676-0.63,4.447-1.714,4.744-3.64c-2.567,0.352-5.088,1.566-7.035,3.331c0.703-0.757,1.236-1.679,1.35-2.672
	c-6.848,4.375-10.848,13.195-14.085,21.75c-2.542-2.463-4.795-4.403-6.816-5.479c-5.67-3.041-12.449-6.213-23.091-10.164
	c-0.327,3.521,1.741,8.203,7.7,11.316c-1.291-0.173-3.652,0.213-5.54,0.665c0.769,4.034,3.28,7.357,10.079,8.964
	c-3.107,0.205-4.713,0.912-6.168,2.436c1.415,2.804,4.868,6.107,11.08,5.429c-6.906,2.977-2.816,8.49,2.804,7.666
	C28.794,72.143,13.679,71.416,5,63.135c22.661,30.879,71.921,18.262,79.262-11.482c5.5,0.047,8.733-1.904,10.738-4.056
	C91.831,48.134,87.238,47.578,84.803,46.564z"/>
</svg>
